<svg width="221" height="280" viewBox="0 0 221 280" fill="none" xmlns="http://www.w3.org/2000/svg">
<g clip-path="url(#clip0)">
<path fill-rule="evenodd" clip-rule="evenodd" d="M115.206 46.8295L115.502 138.962L102.1 139.005L101.847 60.2747L23.1169 60.5275L23.0739 47.1254L115.206 46.8295Z" fill="url(#paint0_linear)"/>
<path fill-rule="evenodd" clip-rule="evenodd" d="M158.595 83.2391L158.891 175.372L145.489 175.415L145.236 96.6843L66.5056 96.9371L66.4625 83.5349L158.595 83.2391Z" fill="url(#paint1_linear)"/>
<path fill-rule="evenodd" clip-rule="evenodd" d="M62.207 127.727L154.34 127.727L154.34 141.129L75.6093 141.129L75.6093 219.86L62.2071 219.86L62.207 127.727Z" fill="url(#paint2_linear)"/>
<path fill-rule="evenodd" clip-rule="evenodd" d="M95.2578 166.156L187.391 166.156L187.391 179.558L108.66 179.558L108.66 258.289L95.2579 258.289L95.2578 166.156Z" fill="url(#paint3_linear)"/>
</g>
<defs>
<linearGradient id="paint0_linear" x1="42.6932" y1="27.3796" x2="135.121" y2="119.216" gradientUnits="userSpaceOnUse">
<stop stop-color="#FFE259"/>
<stop offset="1" stop-color="#FFA751"/>
</linearGradient>
<linearGradient id="paint1_linear" x1="86.0819" y1="63.7892" x2="178.51" y2="155.626" gradientUnits="userSpaceOnUse">
<stop stop-color="#FFE259"/>
<stop offset="1" stop-color="#FFA751"/>
</linearGradient>
<linearGradient id="paint2_linear" x1="42.5244" y1="200.177" x2="134.657" y2="108.044" gradientUnits="userSpaceOnUse">
<stop stop-color="#FFE259"/>
<stop offset="1" stop-color="#FFA751"/>
</linearGradient>
<linearGradient id="paint3_linear" x1="75.5752" y1="238.606" x2="167.708" y2="146.473" gradientUnits="userSpaceOnUse">
<stop stop-color="#FFE259"/>
<stop offset="1" stop-color="#FFA751"/>
</linearGradient>
<clipPath id="clip0">
<rect width="221" height="279" fill="white" transform="translate(0 0.911224)"/>
</clipPath>
</defs>
</svg>
