<svg width="225" height="167" viewBox="0 0 225 167" fill="none" xmlns="http://www.w3.org/2000/svg">
<path fill-rule="evenodd" clip-rule="evenodd" d="M62.8958 116.581C55.8847 113.671 47.8419 116.995 44.9318 124.006L38.9477 138.423C37.9776 140.76 35.2967 141.868 32.9597 140.898C30.6226 139.928 29.5145 137.247 30.4845 134.91L36.4686 120.493C41.3189 108.808 54.7234 103.267 66.4086 108.117L76.0312 112.112C83.0424 115.022 91.0851 111.697 93.9952 104.686L97.9893 95.0635C102.839 83.3783 116.244 77.8374 127.929 82.6876L137.552 86.6816C144.563 89.5918 152.606 86.2672 155.516 79.2561L159.51 69.6336C164.36 57.9484 177.765 52.4075 189.45 57.2577L198.305 60.9334C200.642 61.9034 201.751 64.5843 200.781 66.9214C199.811 69.2584 197.13 70.3666 194.793 69.3966L185.937 65.7209C178.926 62.8108 170.883 66.1353 167.973 73.1464L163.979 82.7689C159.129 94.4541 145.724 99.995 134.039 95.1448L124.416 91.1508C117.405 88.2407 109.363 91.5652 106.452 98.5763L102.458 108.199C97.6082 119.884 84.2036 125.425 72.5184 120.575L62.8958 116.581Z" fill="url(#paint0_linear)"/>
<path fill-rule="evenodd" clip-rule="evenodd" d="M50.1809 85.8204C43.1698 82.9103 35.1271 86.2348 32.2169 93.2459L26.2328 107.663C25.2628 110 22.5818 111.108 20.2448 110.138C17.9078 109.168 16.7996 106.487 17.7697 104.15L23.7538 89.733C28.604 78.0479 42.0086 72.507 53.6937 77.3572L63.3164 81.3513C70.3275 84.2614 78.3703 80.9369 81.2804 73.9258L85.2744 64.3032C90.1246 52.618 103.529 47.0772 115.214 51.9274L124.837 55.9214C131.848 58.8315 139.891 55.507 142.801 48.4959L146.795 38.8733C151.645 27.1881 165.05 21.6472 176.735 26.4974L185.591 30.1731C187.928 31.1432 189.036 33.8241 188.066 36.1611C187.096 38.4982 184.415 39.6063 182.078 38.6363L173.222 34.9606C166.211 32.0505 158.168 35.375 155.258 42.3861L151.264 52.0087C146.414 63.6939 133.009 69.2348 121.324 64.3846L111.702 60.3905C104.69 57.4804 96.6477 60.8049 93.7376 67.8161L89.7436 77.4386C84.8934 89.1238 71.4888 94.6647 59.8036 89.8145L50.1809 85.8204Z" fill="url(#paint1_linear)"/>
<defs>
<linearGradient id="paint0_linear" x1="33.387" y1="145.678" x2="21.5487" y2="108.921" gradientUnits="userSpaceOnUse">
<stop stop-color="#00FFC2"/>
<stop offset="1" stop-color="#FC6782"/>
<stop offset="1" stop-color="#FFB800"/>
</linearGradient>
<linearGradient id="paint1_linear" x1="20.6721" y1="114.918" x2="8.83382" y2="78.1607" gradientUnits="userSpaceOnUse">
<stop stop-color="#00FFC2"/>
<stop offset="1" stop-color="#FC6782"/>
<stop offset="1" stop-color="#FFB800"/>
</linearGradient>
</defs>
</svg>
